<?xml version="1.0" encoding="UTF-8"?>
<svg id="Negativo" xmlns="http://www.w3.org/2000/svg" viewBox="0 0 215 104.88">
  <defs>
    <style>
      .cls-1 {
        fill: #f58220;
      }

      .cls-1, .cls-2 {
        stroke-width: 0px;
      }

      .cls-2 {
        fill: #fff;
      }
    </style>
  </defs>
  <g>
    <path class="cls-2" d="m33.03,97.97h-3.62v6.52h-4.46v-22.4h8.07c5.21,0,7.81,2.59,7.81,7.77,0,2.61-.66,4.62-1.99,6.01-1.32,1.4-3.27,2.09-5.83,2.09Zm-3.62-3.89h3.58c2.22,0,3.33-1.41,3.33-4.22,0-1.38-.27-2.38-.81-2.98-.54-.6-1.38-.91-2.52-.91h-3.58v8.1Z"/>
    <path class="cls-2" d="m42.29,104.5v-16.08h4.19v1.7c1.77-1.07,3.45-1.77,5.04-2.09v4.34c-1.7.36-3.16.74-4.38,1.12l-.63.23v10.77h-4.22Z"/>
    <path class="cls-2" d="m53.16,86.36v-4.37h4.22v4.37h-4.22Zm0,18.13v-16.08h4.22v16.08h-4.22Z"/>
    <path class="cls-2" d="m63.88,104.5h-4.22v-16.08h4.19v.9c1.45-.86,2.69-1.29,3.72-1.29,1.7,0,3.02.51,3.94,1.51,1.93-1,3.7-1.51,5.29-1.51,2.08,0,3.52.62,4.33,1.85.81,1.23,1.21,3.2,1.21,5.9v8.71h-4.22v-8.58c0-1.37-.15-2.38-.44-3.04-.29-.65-.88-.98-1.76-.98-.67,0-1.49.15-2.46.45l-.47.16c.08,1.61.13,2.83.13,3.67v8.33h-4.22v-8.26c0-1.59-.14-2.71-.41-3.36-.27-.65-.87-.98-1.8-.98-.82,0-1.63.15-2.43.45l-.38.13v12.03h0Z"/>
    <path class="cls-2" d="m88.7,100.43c.49.44,1.2.66,2.13.66,1.95,0,3.7-.06,5.23-.19l.88-.1.06,3.18c-2.42.6-4.6.9-6.55.9-2.37,0-4.09-.64-5.17-1.93s-1.61-3.38-1.61-6.27c0-5.76,2.32-8.65,6.96-8.65s6.87,2.42,6.87,7.27l-.32,2.99h-9.26c.02.99.28,1.7.77,2.14Zm4.65-5.42c0-1.29-.2-2.18-.6-2.69-.4-.5-1.1-.75-2.09-.75s-1.7.26-2.11.79c-.41.52-.62,1.41-.65,2.65h5.45Z"/>
    <path class="cls-2" d="m115.34,104.13c-2.25.5-4.28.75-6.08.75s-3.25-.23-4.33-.68c-1.08-.45-1.93-1.18-2.55-2.18s-1.04-2.16-1.27-3.51c-.23-1.34-.35-3.03-.35-5.07,0-4.27.59-7.24,1.77-8.91,1.18-1.68,3.35-2.52,6.51-2.52,1.82,0,3.94.29,6.34.88l-.13,3.57c-2.1-.32-3.85-.49-5.24-.49s-2.38.19-2.98.57c-.59.38-1.03,1.1-1.32,2.16-.28,1.06-.43,2.87-.43,5.42s.29,4.32.87,5.31c.58.99,1.75,1.48,3.5,1.48s3.61-.15,5.59-.45l.09,3.67Z"/>
    <path class="cls-2" d="m117.57,90.24c1.11-1.47,2.97-2.2,5.58-2.2s4.46.73,5.58,2.2c1.11,1.47,1.67,3.53,1.67,6.19,0,5.64-2.41,8.45-7.25,8.45s-7.25-2.82-7.25-8.45c0-2.66.56-4.72,1.67-6.19Zm3.26,9.82c.43.77,1.2,1.16,2.32,1.16s1.89-.39,2.32-1.16c.43-.77.65-1.98.65-3.63s-.22-2.85-.65-3.6-1.2-1.13-2.32-1.13-1.89.38-2.32,1.13-.65,1.95-.65,3.6c0,1.65.22,2.86.65,3.63Z"/>
    <path class="cls-2" d="m136.34,104.5h-4.22v-16.08h4.19v.9c1.43-.86,2.74-1.29,3.94-1.29,2.1,0,3.55.63,4.35,1.9.8,1.26,1.2,3.22,1.2,5.85v8.71h-4.22v-8.58c0-1.37-.16-2.38-.47-3.04-.32-.65-.95-.98-1.89-.98-.86,0-1.69.15-2.49.45l-.38.13v12.02h0Z"/>
    <path class="cls-2" d="m156.9,92.09h-3.88v6.59c0,.65.02,1.1.05,1.37.03.27.15.5.35.69.2.19.51.29.93.29l2.39-.06.19,3.44c-1.41.32-2.48.48-3.21.48-1.89,0-3.18-.43-3.87-1.3-.69-.87-1.04-2.47-1.04-4.81v-6.69h-1.86v-3.67h1.86v-6.28h4.22v6.28h3.88v3.67h0Z"/>
    <path class="cls-2" d="m158.79,104.5v-16.08h4.19v1.7c1.76-1.07,3.44-1.77,5.04-2.09v4.34c-1.7.36-3.16.74-4.38,1.12l-.63.23v10.77h-4.22Z"/>
    <path class="cls-2" d="m170.51,90.24c1.11-1.47,2.97-2.2,5.57-2.2s4.46.73,5.58,2.2c1.11,1.47,1.67,3.53,1.67,6.19,0,5.64-2.42,8.45-7.25,8.45s-7.25-2.82-7.25-8.45c0-2.66.56-4.72,1.67-6.19Zm3.26,9.82c.43.77,1.2,1.16,2.32,1.16s1.89-.39,2.32-1.16c.43-.77.65-1.98.65-3.63s-.21-2.85-.65-3.6c-.43-.75-1.2-1.13-2.32-1.13s-1.89.38-2.32,1.13-.65,1.95-.65,3.6.21,2.86.65,3.63Z"/>
    <path class="cls-2" d="m184.72,104.5v-22.51h4.22v22.51h-4.22Z"/>
  </g>
  <g>
    <path class="cls-1" d="m79.37,49.73c-.14-.86-.2-1.73-.2-2.59v-21.24c0-8.17,5.81-15.01,13.52-16.59h-2.3c-7.93,0-14.42,6.49-14.42,14.43v20.34c0,2.58.69,5.01,1.89,7.11l1.52-1.45Z"/>
    <path class="cls-2" d="m133.38,13.3l-4.11-4.11c-.77-.77-2.03-.77-2.81,0l-26.16,26.16-4.18-4.18c-.77-.77-2.03-.77-2.8,0l-4.72,4.71c-.77.77-.77,2.03,0,2.8l5.58,5.58,1.64,1.64,2.47,2.47c.77.77,2.03.77,2.8,0l32.28-32.28c.77-.77.77-2.04,0-2.81Z"/>
    <path class="cls-1" d="m134.27,25.09c.01.27.02.54.02.81v21.24c0,3.84-1.28,7.38-3.44,10.22-1.26,1.69-2.84,3.13-4.65,4.22-1.84,1.13-3.91,1.92-6.12,2.28h2.5c7.93,0,14.42-6.49,14.42-14.43v-20.34c0-1.98-.41-3.87-1.14-5.59l-1.58,1.59Z"/>
    <path class="cls-2" d="m83.68,70.17c-1.5,0-2.93-.55-4.03-1.55l-5.8-5.3c-1.18-1.07-1.84-2.53-1.85-4.1-.02-1.57.61-3.04,1.76-4.14l5.6-5.35c-.14-.86-.2-1.73-.2-2.59v-21.24c0-9.34,7.6-16.94,16.94-16.94h21.18l6.33-6.33c1.11-1.11,2.59-1.72,4.17-1.72s3.06.61,4.17,1.72l8.21,8.21c2.3,2.3,2.3,6.04,0,8.34l-5.9,5.9c.01.27.02.54.02.81v21.24c0,9.34-7.6,16.94-16.94,16.94h-21.24c-1.24,0-2.47-.14-3.68-.41l-4.41,4.64c-1.12,1.18-2.7,1.85-4.34,1.85Zm12.43-57.45c-7.27,0-13.18,5.91-13.18,13.18v21.24c0,.97.11,1.95.33,2.91l.29,1.29-1.11.71c-.12.08-.23.16-.32.25l-5.75,5.5c-.39.37-.6.86-.6,1.37,0,.51.23,1,.63,1.36l5.8,5.3c.4.37.93.57,1.49.57.61,0,1.2-.25,1.61-.68l4.93-5.2s.08-.09.12-.14l.79-.99,1.21.36c1.22.37,2.49.56,3.76.56h21.24c7.27,0,13.18-5.91,13.18-13.18v-21.24c0-.45-.02-.9-.07-1.34l-.09-.89,7.15-7.14c.83-.83.83-2.19,0-3.02l-8.21-8.21c-.4-.4-.94-.62-1.51-.62s-1.11.22-1.51.62l-7.48,7.48-.83-.04c-.2-.01-.41-.02-.62-.02h-21.24Z"/>
  </g>
</svg>